<?xml version="1.0" encoding="utf-8"?>
<!-- Generator: Adobe Illustrator 21.0.0, SVG Export Plug-In . SVG Version: 6.00 Build 0)  -->
<svg version="1.1" id="Layer_1" xmlns="http://www.w3.org/2000/svg" xmlns:xlink="http://www.w3.org/1999/xlink" x="0px" y="0px"
	 viewBox="0 0 174.1 348.6" style="enable-background:new 0 0 174.1 348.6;" xml:space="preserve">
<style type="text/css">
	.st0{fill:#1A1A18;}
</style>
<g>
	<path class="st0" d="M124.1,345.9h-14.2c-26.1,0-47.4-21.2-47.4-47.4V50.2C62.6,24,83.8,2.8,110,2.8h14.2
		c26.1,0,47.4,21.2,47.4,47.4v248.4C171.5,324.7,150.3,345.9,124.1,345.9z M110,5.6c-24.6,0-44.5,20-44.5,44.5v248.4
		c0,24.6,20,44.5,44.5,44.5h14.2c24.6,0,44.5-20,44.5-44.5V50.2c0-24.6-20-44.5-44.5-44.5H110V5.6z"/>
</g>
<g>
	<path class="st0" d="M124.1,336.7h-14.2c-21,0-38.2-17.1-38.2-38.2V50.2c0-21,17.1-38.2,38.2-38.2h14.2c21,0,38.2,17.1,38.2,38.2
		v248.4C162.3,319.6,145.2,336.7,124.1,336.7z M110,13.4c-20.3,0-36.7,16.5-36.7,36.7v248.4c0,20.3,16.5,36.7,36.7,36.7h14.2
		c20.3,0,36.7-16.5,36.7-36.7V50.2c0-20.3-16.5-36.7-36.7-36.7H110V13.4z"/>
</g>
<g>
	<path class="st0" d="M31.5,267.8h-19c-5.5,0-9.9-4.5-9.9-9.9V90.8c0-5.5,4.5-9.9,9.9-9.9h18.9c5.5,0,9.9,4.5,9.9,9.9v167.1
		C41.4,263.4,36.9,267.8,31.5,267.8z M12.5,83.7c-3.9,0-7.1,3.2-7.1,7.1v167.1c0,3.9,3.2,7.1,7.1,7.1h18.9c3.9,0,7.1-3.2,7.1-7.1
		V90.8c0-3.9-3.2-7.1-7.1-7.1H12.5z"/>
</g>
<g>
	<rect x="82.4" y="56.4" width="69.2" height="41.3"/>
	<rect x="77.5" y="56.4" width="3.9" height="41.3"/>
	<rect x="152.7" y="56.4" width="3.9" height="41.3"/>
</g>
<g>
	<path d="M101.6,106.9c-0.6,2.5-1.2,5.1-1.9,7.6c-0.1,0.4-0.2,0.8-0.3,1.3c0,0.2-0.1,0.2-0.2,0.2c-2.2,0-4.3,0-6.5,0
		c-0.1,0-0.3,0-0.4,0c-0.3-0.1-0.6-0.2-0.6-0.5c-0.1-0.2,0.1-0.6,0.1-0.6c0.3-1.4,0.6-2.7,1-4c0.1-0.5,0.4-0.9,1-1
		c0.2,0,0.4-0.1,0.6-0.1c1.5,0,3,0,4.6,0c0.2,0,0.2-0.1,0.3-0.2c0.2-0.9,0.4-1.7,0.6-2.6C100.4,106.9,101,106.9,101.6,106.9z
		 M95.7,114.9c0.6,0,1.2,0,1.8,0c0.3,0,0.4,0,0.4-0.4c0.3-1.1,0.5-2.2,0.8-3.4c0.1-0.3,0-0.3-0.2-0.3c-1.2,0-2.4,0-3.6,0
		c-0.3,0-0.4,0-0.5,0.4c-0.3,1.1-0.5,2.2-0.8,3.4c-0.1,0.3,0,0.3,0.2,0.3C94.4,114.9,95.1,114.9,95.7,114.9z"/>
	<path d="M109,114.9c-0.1,0.3-0.2,0.6-0.2,0.9c0,0.2-0.1,0.2-0.2,0.2c-0.7,0-1.4,0-2,0c-1.5,0-2.9,0-4.4,0c-0.2,0-0.4,0-0.6-0.1
		c-0.3-0.1-0.5-0.3-0.5-0.7c0-0.2,0-0.4,0.1-0.6c0.3-1.2,0.6-2.5,0.9-3.7c0.2-0.7,0.5-1,1.1-1.1c0.2,0,0.4,0,0.5,0
		c1.7,0,3.5,0,5.2,0c0.1,0,0.2,0,0.2,0c0.7,0.1,0.9,0.5,0.8,1.2c-0.2,0.9-0.4,1.7-0.6,2.6c0,0.2-0.1,0.2-0.2,0.2c-0.8,0-1.6,0-2.3,0
		c-1.1,0-2.3,0-3.4,0c-0.2,0-0.2,0-0.3,0.2c0,0.2-0.1,0.4-0.2,0.7c-0.1,0.3,0,0.4,0.3,0.4c0.5,0,1.1,0,1.6,0c1.3,0,2.6,0,3.9,0
		C108.8,114.9,108.9,114.9,109,114.9z M103.4,112.7C103.5,112.7,103.5,112.7,103.4,112.7c1.5,0,2.9,0,4.2,0c0.1,0,0.1-0.1,0.2-0.2
		c0.1-0.5,0.2-1,0.4-1.5c0.1-0.2,0-0.3-0.2-0.3c-1.3,0-2.5,0-3.8,0c-0.2,0-0.3,0.1-0.3,0.3C103.7,111.6,103.5,112.1,103.4,112.7z"/>
	<path d="M137.3,115.9c-0.9,0-1.8,0-2.7,0c-0.2,0-0.4,0-0.6-0.1c-0.3-0.1-0.4-0.3-0.4-0.7c0-0.2,0-0.4,0.1-0.6
		c0.3-1.2,0.6-2.4,0.9-3.7c0.2-0.9,0.5-1.2,1.4-1.2c1.9,0,3.8,0,5.7,0c0.1,0,0.3,0,0.4,0.1c0.3,0.1,0.5,0.3,0.5,0.7
		c0,0.2,0,0.4-0.1,0.7c-0.3,1.2-0.6,2.5-0.9,3.7c0,0.1,0,0.1-0.1,0.2c-0.1,0.6-0.5,0.9-1,0.9C139.3,115.9,138.3,115.9,137.3,115.9
		L137.3,115.9z M138.5,110.8c-0.6,0-1.2,0-1.9,0c-0.3,0-0.4,0.1-0.4,0.4c-0.3,1.1-0.5,2.3-0.8,3.4c-0.1,0.3,0,0.3,0.2,0.3
		c1.3,0,2.5,0,3.8,0c0.2,0,0.3-0.1,0.4-0.3c0.3-1.1,0.6-2.3,0.8-3.4c0.1-0.3,0-0.3-0.2-0.3C139.7,110.8,139.1,110.8,138.5,110.8z"/>
	<path d="M121.1,115.9c-0.9,0-1.8,0-2.6,0c-0.1,0-0.2,0-0.3,0c-0.7-0.1-1-0.5-0.8-1.2c0.2-1,0.5-2,0.7-3c0.1-0.3,0.1-0.5,0.2-0.8
		c0.2-0.9,0.6-1.2,1.4-1.2c1.9,0,3.7,0,5.6,0c0.7,0,1,0.5,0.9,1.2v0.1c-0.3,1.3-0.6,2.5-0.9,3.8c0,0.1-0.1,0.2-0.1,0.3
		c-0.1,0.5-0.4,0.7-0.9,0.7c-0.2,0-0.5,0-0.7,0C122.7,115.9,121.9,115.9,121.1,115.9z M121.2,114.9c0.6,0,1.2,0,1.9,0
		c0.3,0,0.4-0.1,0.4-0.4c0.3-1.1,0.5-2.2,0.8-3.3c0.1-0.3,0-0.4-0.3-0.4c-1.2,0-2.4,0-3.6,0c-0.4,0-0.4,0-0.6,0.5
		c-0.3,1.1-0.5,2.2-0.8,3.2c-0.1,0.3,0,0.4,0.3,0.4C120,114.9,120.6,114.9,121.2,114.9z"/>
	<path d="M110.8,109.7c0.4,0,0.8,0,1.2,0c0.5,0,0.5,0,0.6,0.6c0.2,1.3,0.5,2.5,0.8,3.8c0,0,0,0.1,0,0.2c0.1-0.1,0.1-0.2,0.1-0.2
		c0.8-1.4,1.7-2.7,2.5-4.1c0.1-0.2,0.2-0.2,0.4-0.2c0.4,0,0.9,0,1.3,0c-0.1,0.1-0.1,0.2-0.1,0.2c-1.2,2-2.5,3.9-3.7,5.9
		c-0.1,0.1-0.2,0.2-0.3,0.2c-0.4,0-0.8,0-1.2,0c-0.2,0-0.2,0-0.3-0.2c-0.4-1.8-0.8-3.5-1.2-5.2C110.9,110.2,110.8,110,110.8,109.7z"
		/>
	<path d="M130,109.7c-0.2,0.9-0.4,1.7-0.6,2.5s-0.4,1.6-0.6,2.4c-0.1,0.3,0,0.3,0.2,0.3c1.2,0,2.5,0,3.7,0c0.1,0,0.2,0,0.3,0
		c-0.1,0.3-0.2,0.7-0.2,1c0,0-0.1,0.1-0.2,0.1c-1.5,0-2.9,0-4.4,0c-0.2,0-0.5,0-0.7,0c-0.5,0-0.7-0.3-0.6-0.9
		c0.4-1.7,0.8-3.5,1.3-5.2c0-0.1,0.1-0.2,0.2-0.2C128.8,109.7,129.4,109.7,130,109.7z"/>
</g>
</svg>
